<svg width="20" height="20" viewBox="0 0 20 20" fill="none" xmlns="http://www.w3.org/2000/svg">
<path d="M8.50352 1.55908L9.49448 0.568115C9.91407 0.148519 10.5926 0.148519 11.0077 0.568115L19.6853 9.24125C20.1049 9.66085 20.1049 10.3393 19.6853 10.7545L11.0077 19.4321C10.5881 19.8517 9.90961 19.8517 9.49448 19.4321L8.50352 18.4411C8.07946 18.0171 8.08838 17.3252 8.52137 16.91L13.9002 11.7856H1.07131C0.477625 11.7856 0 11.308 0 10.7143V9.28589C0 8.69221 0.477625 8.21458 1.07131 8.21458H13.9002L8.52137 3.09015C8.08392 2.67502 8.07499 1.98314 8.50352 1.55908Z" fill="white"/>
</svg>
