<svg width="39" height="23" viewBox="0 0 39 23" fill="none" xmlns="http://www.w3.org/2000/svg">
<path d="M37.2151 5.47661L20.8709 0.455103C19.9803 0.181469 19.0193 0.181469 18.1293 0.455103L1.78448 5.47661C0.405174 5.90024 0.405174 7.72427 1.78448 8.14791L4.6339 9.0233C4.0087 9.79616 3.62433 10.7389 3.58624 11.7714C3.02198 12.0948 2.62471 12.6784 2.62471 13.3751C2.62471 14.0067 2.95753 14.5382 3.43683 14.878L1.94092 21.6093C1.81084 22.1946 2.25616 22.7501 2.85557 22.7501H6.14328C6.74329 22.7501 7.1886 22.1946 7.05852 21.6093L5.56262 14.878C6.04192 14.5382 6.37473 14.0067 6.37473 13.3751C6.37473 12.6971 5.99563 12.13 5.45715 11.8007C5.50168 10.9206 5.95168 10.1424 6.66946 9.64909L18.1287 13.17C18.6595 13.3329 19.6779 13.5362 20.8703 13.17L37.2151 8.14849C38.595 7.72427 38.595 5.90083 37.2151 5.47661V5.47661ZM21.4211 14.9624C19.7494 15.4757 18.325 15.1921 17.5779 14.9624L9.0806 12.352L8.24974 19.0001C8.24974 21.0714 13.2865 22.7501 19.4998 22.7501C25.7131 22.7501 30.7498 21.0714 30.7498 19.0001L29.919 12.3514L21.4211 14.9624V14.9624Z" fill="white"/>
</svg>
