<svg width="57" height="31" viewBox="0 0 57 31" fill="none" xmlns="http://www.w3.org/2000/svg">
<path d="M13.1506 28.4932C13.1506 27.9409 13.5984 27.4932 14.1506 27.4932H40.4153C40.9676 27.4932 41.4153 27.9409 41.4153 28.4932V30.2285H13.1506V28.4932Z" fill="white"/>
<path d="M14.9741 24.8462C14.9741 24.2939 15.4218 23.8462 15.9741 23.8462H38.5918C39.1441 23.8462 39.5918 24.2939 39.5918 24.8462V26.5815H14.9741V24.8462Z" fill="white"/>
<path d="M35.033 12.9049H38.68V24.7579H35.033V12.9049Z" fill="white"/>
<path d="M25.9153 12.9049H29.5623V24.7579H25.9153V12.9049Z" fill="white"/>
<path d="M16.7976 12.9049H20.4447V24.7579H16.7976V12.9049Z" fill="white"/>
<path d="M13.1155 8.03896C13.1155 7.66724 13.3217 7.32619 13.6508 7.15346L27.2829 0L41.7701 7.15915C42.1111 7.3277 42.327 7.6752 42.327 8.05565V10.1697H39.1359V11.9932H16.0963V10.1346H13.1155L13.1155 8.03896Z" fill="white"/>
<path d="M49.1899 23.8394L49.1899 29.8662C49.1899 29.9985 49.3091 30.1058 49.4561 30.1058L50.698 30.1058C50.845 30.1058 50.9642 29.9985 50.9642 29.8662L50.9642 23.8394L51.9857 23.8394C52.4599 23.8394 52.6974 23.3234 52.3621 23.0215L50.4534 21.3038C50.2456 21.1167 49.9085 21.1167 49.7007 21.3038L47.792 23.0215C47.4567 23.3233 47.6942 23.8394 48.1684 23.8394L49.1899 23.8394Z" fill="white"/>
<path d="M6.1637 13.1223V7.09536C6.1637 6.96308 6.05645 6.85583 5.92417 6.85583H4.80639C4.67411 6.85583 4.56686 6.96308 4.56686 7.09536V13.1223H3.6475C3.2207 13.1223 3.00697 13.6383 3.30875 13.9401L5.02653 15.6578C5.21362 15.8449 5.51694 15.8449 5.70401 15.6578L7.42179 13.9401C7.72357 13.6383 7.50983 13.1223 7.08304 13.1223H6.1637V13.1223Z" fill="white"/>
</svg>
